# xmcd
#
# Track frame offsets: 
#        150
#        14557
#        32044
#        49837
#        69193
#        81580
#        102958
#        118564
#        138861
#        159816
#        173990
#        192970
#        210128
#
# Disc length: 3020 seconds
#
# Revision: 2
# Processed by: cddbd v1.5.2PL0 Copyright (c) Steve Scherf et al.
# Submitted via: ExactAudioCopy v1.0b1
#
DISCID=a40bca0d
DTITLE=Aaron Watson - The Honky Tonk Kid
DYEAR=2004
DGENRE=Country
TTITLE0=The Right Place
TTITLE1=The Honky Tonk Kid
TTITLE2=Reckless
TTITLE3=What She Don't Know
TTITLE4=If You're Not In Love
TTITLE5=Let's Lose Some Sleep Tonight
TTITLE6=Honky Tonkin' Around Texas
TTITLE7=Mackenzie Park
TTITLE8=Fool's Paradise
TTITLE9=Diesel Driving Daddy (Featuring Dale Watson)
TTITLE10=Next To Heaven
TTITLE11=For What It's Worth
TTITLE12=Will You Love Me In A Trailer
EXTD=YEAR: 2004
EXTT0=
EXTT1=
EXTT2=
EXTT3=
EXTT4=
EXTT5=
EXTT6=
EXTT7=
EXTT8=
EXTT9=
EXTT10=
EXTT11=
EXTT12=
PLAYORDER=
